<svg width="53" height="31" viewBox="0 0 53 31" fill="none" xmlns="http://www.w3.org/2000/svg">
<path d="M32.0288 29.3164L32.0301 29.3169C33.7225 29.9883 35.4881 30.324 37.3234 30.324C40.1315 30.324 42.5817 29.725 44.6541 28.5057L44.6562 28.5044C46.7511 27.2582 48.4023 25.2074 49.6323 22.406L49.8323 21.9507L49.378 21.7483L47.8076 21.0485L47.3295 20.8355L47.1386 21.3229C46.8189 22.1389 46.4068 22.8913 45.9023 23.5814C45.3982 24.2711 44.8148 24.8868 44.1515 25.4292C43.5029 25.9342 42.7306 26.349 41.8284 26.6695C40.9381 26.973 39.9544 27.1277 38.8729 27.1277C37.4366 27.1277 36.1474 26.8321 34.9958 26.2491C33.8466 25.6604 32.8473 24.8445 31.9964 23.7957C31.1439 22.7321 30.4807 21.4973 30.0096 20.0863C29.5534 18.6655 29.3225 17.099 29.3225 15.3828C29.3225 13.4254 29.5485 11.6648 29.9944 10.0969C30.442 8.52318 31.0523 7.25048 31.8137 6.26298C32.621 5.23142 33.5662 4.46017 34.6496 3.93896C35.7519 3.41535 36.9411 3.15208 38.2238 3.15208C39.3373 3.15208 40.3065 3.38855 41.145 3.84848L41.145 3.84851L41.1498 3.85107C42.0039 4.30755 42.7453 4.94564 43.3744 5.77299L43.3767 5.7759C43.9425 6.50885 44.4447 7.41809 44.878 8.51166L44.8787 8.51351C45.3179 9.60918 45.6444 10.6213 45.8609 11.5507L45.9509 11.9373H46.3479H48.0648H48.5745L48.5647 11.4277L48.3763 1.59295L48.3669 1.10252H47.8763H46.2013H45.9298L45.782 1.33017L45.1761 2.26295C44.1909 1.7422 43.1612 1.32925 42.0874 1.02436C40.849 0.672738 39.476 0.5 37.9725 0.5C35.9436 0.5 34.0301 0.860937 32.2365 1.586C30.4449 2.31025 28.8867 3.3387 27.567 4.67134C26.2332 6.01718 25.1926 7.62256 24.4435 9.48107C23.6904 11.3366 23.3182 13.397 23.3182 15.6549C23.3182 17.9141 23.6978 19.9639 24.4669 21.796L24.4675 21.7972C25.2306 23.6017 26.2575 25.142 27.5512 26.4104L27.5532 26.4123C28.856 27.6755 30.3489 28.6443 32.0288 29.3164Z" fill="#EFEDEC" stroke="#EFEDEC"/>
<path d="M33.8542 29.3164L33.8556 29.3169C35.548 29.9883 37.3136 30.324 39.1489 30.324C41.957 30.324 44.4071 29.725 46.4796 28.5057L46.4817 28.5044C48.5766 27.2582 50.2277 25.2074 51.4578 22.406L51.6577 21.9507L51.2035 21.7483L49.6331 21.0485L49.155 20.8355L48.964 21.3229C48.6444 22.1389 48.2323 22.8913 47.7278 23.5814C47.2236 24.2711 46.6403 24.8868 45.977 25.4292C45.3284 25.9342 44.5561 26.349 43.6539 26.6695C42.7636 26.973 41.7798 27.1277 40.6983 27.1277C39.262 27.1277 37.9729 26.8321 36.8212 26.2491C35.672 25.6604 34.6727 24.8445 33.8219 23.7957C32.9693 22.7321 32.3061 21.4973 31.835 20.0863C31.3788 18.6655 31.1479 17.099 31.1479 15.3828C31.1479 13.4254 31.3739 11.6648 31.8198 10.0969C32.2674 8.52318 32.8777 7.25048 33.6391 6.26298C34.4464 5.23142 35.3917 4.46017 36.475 3.93896C37.5773 3.41535 38.7666 3.15208 40.0492 3.15208C41.1627 3.15208 42.132 3.38855 42.9705 3.84848L42.9704 3.84851L42.9752 3.85107C43.8293 4.30755 44.5707 4.94564 45.1999 5.77299L45.2021 5.7759C45.768 6.50885 46.2701 7.41809 46.7034 8.51166L46.7041 8.51351C47.1433 9.60918 47.4698 10.6213 47.6863 11.5507L47.7764 11.9373H48.1733H49.8902H50.3999L50.3901 11.4277L50.2017 1.59295L50.1923 1.10252H49.7018H48.0267H47.7553L47.6074 1.33017L47.0015 2.26295C46.0164 1.7422 44.9866 1.32925 43.9128 1.02436C42.6745 0.672738 41.3014 0.5 39.798 0.5C37.7691 0.5 35.8556 0.860937 34.0619 1.586C32.2703 2.31025 30.7121 3.3387 29.3925 4.67134C28.0586 6.01718 27.018 7.62256 26.269 9.48107C25.5158 11.3366 25.1437 13.397 25.1437 15.6549C25.1437 17.9141 25.5232 19.9639 26.2924 21.796L26.2929 21.7972C27.0561 23.6017 28.0829 25.142 29.3766 26.4104L29.3786 26.4123C30.6815 27.6755 32.1743 28.6443 33.8542 29.3164Z" fill="#1C3F3A" stroke="#EFEDEC"/>
<path d="M23.8631 26.7826L23.8648 26.7812C25.3929 25.5816 26.6281 24.047 27.5729 22.1867C28.53 20.3022 28.999 18.0957 28.999 15.5828C28.999 12.8825 28.5106 10.5092 27.5156 8.47769C26.5266 6.45832 25.1565 4.81596 23.4057 3.56051C22.1196 2.61802 20.6179 1.87817 18.907 1.33628C17.1908 0.779164 15.4446 0.5 13.6701 0.5H1.1614H0.661403V1V2.44203V2.90481L1.1228 2.94054C1.44724 2.96567 1.84402 3.02308 2.31623 3.11551C2.76056 3.20249 3.16953 3.33823 3.54507 3.52116L3.54505 3.52119L3.54996 3.52351C3.9271 3.70218 4.1197 3.9133 4.20843 4.13257L4.21136 4.1398L4.21451 4.14694C4.34387 4.43995 4.41402 4.7826 4.41402 5.18393L4.41402 25.9817C4.41402 26.4049 4.3325 26.74 4.19068 27.0051L4.19063 27.0051L4.18733 27.0115C4.07322 27.2324 3.87951 27.4169 3.5641 27.5545L3.56403 27.5543L3.55142 27.5602C3.432 27.6163 3.09425 27.6978 2.45409 27.7803C1.84638 27.8466 1.36356 27.8783 1 27.8783H0.5V28.3783L0.5 29.8204L0.5 30.3204H1H12.8631C14.8759 30.3204 16.8289 30.0288 18.7202 29.4451C20.619 28.8591 22.3344 27.9717 23.8631 26.7826ZM22.3139 10.4772L22.3143 10.4784C22.8062 11.977 23.0561 13.6699 23.0561 15.5625C23.0561 17.4941 22.8641 19.1835 22.487 20.6363L22.4862 20.6394C22.124 22.072 21.5446 23.3255 20.752 24.4065L20.7519 24.4067C20.0098 25.4195 19.0403 26.2139 17.833 26.7896C16.6349 27.361 15.2181 27.6549 13.5693 27.6549C12.1248 27.6549 11.1479 27.4202 10.5575 27.0277C10.0391 26.6831 9.71138 26.0289 9.71138 24.885V3.20997C9.99496 3.2019 10.3425 3.19379 10.7546 3.18566L10.7546 3.18575L10.7641 3.18538C11.4586 3.15849 12.0774 3.14514 12.621 3.14514C14.2098 3.14514 15.6353 3.45031 16.9063 4.05169L16.908 4.0525C18.2028 4.65908 19.2868 5.48823 20.1663 6.54042L20.1677 6.54207C21.1046 7.65317 21.8211 8.96264 22.3139 10.4772Z" fill="#EFEDEC" stroke="#EFEDEC"/>
<path d="M25.6885 26.7826L25.6903 26.7812C27.2183 25.5816 28.4535 24.047 29.3983 22.1867C30.3554 20.3022 30.8245 18.0957 30.8245 15.5828C30.8245 12.8825 30.336 10.5092 29.3411 8.47769C28.352 6.45832 26.9819 4.81596 25.2312 3.56051C23.945 2.61802 22.4433 1.87817 20.7324 1.33628C19.0162 0.779164 17.27 0.5 15.4956 0.5H2.98684H2.48684V1V2.44203V2.90481L2.94824 2.94054C3.27268 2.96567 3.66946 3.02308 4.14167 3.11551C4.586 3.20249 4.99496 3.33823 5.37051 3.52116L5.37049 3.52119L5.3754 3.52351C5.75254 3.70218 5.94514 3.9133 6.03387 4.13257L6.0368 4.1398L6.03995 4.14694C6.16931 4.43995 6.23946 4.7826 6.23946 5.18393L6.23946 25.9817C6.23946 26.4049 6.15794 26.74 6.01611 27.0051L6.01607 27.0051L6.01277 27.0115C5.89866 27.2324 5.70495 27.4169 5.38954 27.5545L5.38947 27.5543L5.37686 27.5602C5.25744 27.6163 4.91969 27.6978 4.27953 27.7803C3.67182 27.8466 3.189 27.8783 2.82544 27.8783H2.32544V28.3783V29.8204V30.3204H2.82544H14.6886C16.7014 30.3204 18.6543 30.0288 20.5456 29.4451C22.4444 28.8591 24.1599 27.9717 25.6885 26.7826ZM24.1394 10.4772L24.1398 10.4784C24.6317 11.977 24.8815 13.6699 24.8815 15.5625C24.8815 17.4941 24.6895 19.1835 24.3124 20.6363L24.3117 20.6394C23.9494 22.072 23.37 23.3255 22.5774 24.4065L22.5773 24.4067C21.8353 25.4195 20.8657 26.2139 19.6584 26.7896C18.4603 27.361 17.0436 27.6549 15.3947 27.6549C13.9502 27.6549 12.9734 27.4202 12.3829 27.0277C11.8646 26.6831 11.5368 26.0289 11.5368 24.885V3.20997C11.8204 3.2019 12.168 3.19379 12.58 3.18566L12.58 3.18575L12.5895 3.18538C13.2841 3.15849 13.9029 3.14514 14.4465 3.14514C16.0352 3.14514 17.4607 3.45031 18.7317 4.05169L18.7335 4.0525C20.0283 4.65908 21.1122 5.48823 21.9917 6.54042L21.9931 6.54207C22.93 7.65317 23.6465 8.96264 24.1394 10.4772Z" fill="#1C3F3A" stroke="#EFEDEC"/>
</svg>
