<svg width="28" height="15" viewBox="0 0 28 15" fill="none" xmlns="http://www.w3.org/2000/svg">
<path d="M19.95 0.296232C19.7637 0.483595 19.6592 0.737047 19.6592 1.00123C19.6592 1.26542 19.7637 1.51887 19.95 1.70623L24.55 6.29623L0.999978 6.29623C0.734761 6.29623 0.480407 6.40159 0.29287 6.58912C0.105334 6.77666 -2.22275e-05 7.03101 -2.22506e-05 7.29623C-2.22738e-05 7.56145 0.105334 7.8158 0.29287 8.00334C0.480407 8.19087 0.734761 8.29623 0.999978 8.29623L24.52 8.29623L19.95 12.8662C19.7603 13.0545 19.6533 13.3105 19.6523 13.5777C19.6514 13.8449 19.7567 14.1016 19.945 14.2912C20.1333 14.4809 20.3892 14.5879 20.6564 14.5889C20.9237 14.5898 21.1803 14.4845 21.37 14.2962L27.73 7.92623C27.8979 7.75757 27.9922 7.52925 27.9922 7.29123C27.9922 7.05322 27.8979 6.8249 27.73 6.65623L21.37 0.296233C21.277 0.202504 21.1664 0.12811 21.0446 0.0773414C20.9227 0.0265727 20.792 0.000433292 20.66 0.000433281C20.528 0.000433269 20.3973 0.0265727 20.2754 0.0773414C20.1535 0.12811 20.0429 0.202504 19.95 0.296232Z" fill="#1C3F3A"/>
</svg>
